<svg width="10" height="10" viewBox="0 0 10 10" fill="none" xmlns="http://www.w3.org/2000/svg">
<path d="M9.375 0C9.7207 0 10 0.279883 10 0.625C10 0.970117 9.7207 1.25 9.375 1.25V8.75C9.7207 8.75 10 9.0293 10 9.375C10 9.7207 9.7207 10 9.375 10H5.9375V8.75H4.0625V10H0.625C0.279883 10 0 9.7207 0 9.375C0 9.0293 0.279883 8.75 0.625 8.75V1.25C0.279883 1.25 0 0.970117 0 0.625C0 0.279883 0.279883 0 0.625 0H9.375ZM2.1875 1.875C2.01562 1.875 1.875 2.01562 1.875 2.1875V2.8125C1.875 2.98438 2.01562 3.125 2.1875 3.125H2.8125C2.98438 3.125 3.125 2.98438 3.125 2.8125V2.1875C3.125 2.01562 2.98438 1.875 2.8125 1.875H2.1875ZM4.375 2.8125C4.375 2.98438 4.51562 3.125 4.6875 3.125H5.3125C5.48438 3.125 5.625 2.98438 5.625 2.8125V2.1875C5.625 2.01562 5.48438 1.875 5.3125 1.875H4.6875C4.51562 1.875 4.375 2.01562 4.375 2.1875V2.8125ZM7.1875 1.875C7.01562 1.875 6.875 2.01562 6.875 2.1875V2.8125C6.875 2.98438 7.01562 3.125 7.1875 3.125H7.8125C7.98438 3.125 8.125 2.98438 8.125 2.8125V2.1875C8.125 2.01562 7.98438 1.875 7.8125 1.875H7.1875ZM1.875 4.6875C1.875 4.85938 2.01562 5 2.1875 5H2.8125C2.98438 5 3.125 4.85938 3.125 4.6875V4.0625C3.125 3.89062 2.98438 3.75 2.8125 3.75H2.1875C2.01562 3.75 1.875 3.89062 1.875 4.0625V4.6875ZM4.6875 3.75C4.51562 3.75 4.375 3.89062 4.375 4.0625V4.6875C4.375 4.85938 4.51562 5 4.6875 5H5.3125C5.48438 5 5.625 4.85938 5.625 4.6875V4.0625C5.625 3.89062 5.48438 3.75 5.3125 3.75H4.6875ZM6.875 4.6875C6.875 4.85938 7.01562 5 7.1875 5H7.8125C7.98438 5 8.125 4.85938 8.125 4.6875V4.0625C8.125 3.89062 7.98438 3.75 7.8125 3.75H7.1875C7.01562 3.75 6.875 3.89062 6.875 4.0625V4.6875ZM5 5.625C4.125 5.625 3.38867 6.22461 3.16602 7.03516C3.11914 7.28711 3.33398 7.5 3.59375 7.5H6.40625C6.66602 7.5 6.88086 7.28711 6.81641 7.03516C6.61133 6.22461 5.875 5.625 5 5.625Z" fill="white"/>
</svg>
