<svg width="10" height="9" viewBox="0 0 10 9" fill="none" xmlns="http://www.w3.org/2000/svg">
<path d="M9.99694 4.49121C9.99694 4.80762 9.73652 5.05547 9.44136 5.05547H8.88579L8.89794 7.86973C8.89794 7.91895 8.89447 7.96465 8.88926 8.01211V8.29688C8.88926 8.68535 8.57848 9 8.19479 9H7.917C7.8979 9 7.8788 8.98418 7.8597 8.99824C7.8354 8.98418 7.81109 9 7.78678 9H6.80584C6.42214 9 6.11137 8.68535 6.11137 8.29688V6.75C6.11137 6.43887 5.86309 6.1875 5.55579 6.1875H4.44463C4.13732 6.1875 3.88905 6.43887 3.88905 6.75V8.29688C3.88905 8.68535 3.57827 9 3.19458 9H2.22405C2.19801 9 2.17197 8.99824 2.14592 8.99648C2.12509 8.99824 2.10425 9 2.08342 9H1.80563C1.42211 9 1.11116 8.68535 1.11116 8.29688V6.32812C1.11116 6.3123 1.11168 6.29473 1.11272 6.27891V5.05547H0.556447C0.243413 5.05547 0 4.80762 0 4.49121C0 4.33301 0.0521549 4.19238 0.173792 4.06934L4.62519 0.140906C4.74673 0.0176133 4.88562 0 5.00715 0C5.12869 0 5.26758 0.0352266 5.37349 0.123293L9.80596 4.06934C9.94486 4.19238 10.016 4.33301 9.99694 4.49121Z" fill="white"/>
</svg>
