<svg width="10" height="12" viewBox="0 0 10 12" fill="none" xmlns="http://www.w3.org/2000/svg">
<path d="M8.75 0C9.4401 0 10 0.503672 10 1.125V10.875C10 11.4961 9.4401 12 8.75 12H6.25V10.125C6.25 9.50391 5.6901 9 5 9C4.3099 9 3.75 9.50391 3.75 10.125V12H1.25C0.559635 12 0 11.4961 0 10.875V1.125C0 0.503672 0.559635 0 1.25 0H8.75ZM1.66667 6.375C1.66667 6.58125 1.85312 6.75 2.08333 6.75H2.91667C3.14583 6.75 3.33333 6.58125 3.33333 6.375V5.625C3.33333 5.41875 3.14583 5.25 2.91667 5.25H2.08333C1.85312 5.25 1.66667 5.41875 1.66667 5.625V6.375ZM4.58333 5.25C4.35417 5.25 4.16667 5.41875 4.16667 5.625V6.375C4.16667 6.58125 4.35417 6.75 4.58333 6.75H5.41667C5.64583 6.75 5.83333 6.58125 5.83333 6.375V5.625C5.83333 5.41875 5.64583 5.25 5.41667 5.25H4.58333ZM6.66667 6.375C6.66667 6.58125 6.85417 6.75 7.08333 6.75H7.91667C8.14583 6.75 8.33333 6.58125 8.33333 6.375V5.625C8.33333 5.41875 8.14583 5.25 7.91667 5.25H7.08333C6.85417 5.25 6.66667 5.41875 6.66667 5.625V6.375ZM2.08333 2.25C1.85312 2.25 1.66667 2.41875 1.66667 2.625V3.375C1.66667 3.58125 1.85312 3.75 2.08333 3.75H2.91667C3.14583 3.75 3.33333 3.58125 3.33333 3.375V2.625C3.33333 2.41875 3.14583 2.25 2.91667 2.25H2.08333ZM4.16667 3.375C4.16667 3.58125 4.35417 3.75 4.58333 3.75H5.41667C5.64583 3.75 5.83333 3.58125 5.83333 3.375V2.625C5.83333 2.41875 5.64583 2.25 5.41667 2.25H4.58333C4.35417 2.25 4.16667 2.41875 4.16667 2.625V3.375ZM7.08333 2.25C6.85417 2.25 6.66667 2.41875 6.66667 2.625V3.375C6.66667 3.58125 6.85417 3.75 7.08333 3.75H7.91667C8.14583 3.75 8.33333 3.58125 8.33333 3.375V2.625C8.33333 2.41875 8.14583 2.25 7.91667 2.25H7.08333Z" fill="white"/>
</svg>
