<svg width="797" height="798" viewBox="0 0 797 798" fill="none" xmlns="http://www.w3.org/2000/svg">
<path d="M146.095 368.887C131.72 371.974 122.501 375.524 105.938 383.859C60.7817 406.547 25.9377 447.757 9.53132 497.764C1.56251 521.533 0 537.739 0 593.611C0 631.117 0.625004 650.718 2.34377 663.22C8.28131 707.208 22.9689 740.855 46.8753 764.624C68.9067 786.386 90.4694 795.493 123.751 796.882C145.626 797.654 155.782 796.264 175.782 789.936C217.189 776.663 260.158 745.177 302.502 696.867C316.565 680.815 337.815 653.342 343.127 644.39L345.94 639.76H397.815H449.691L462.972 657.973C515.941 730.668 575.004 778.361 629.223 792.715C646.255 797.345 676.411 798.425 693.13 795.03C708.13 792.097 730.474 781.447 741.411 772.187C772.193 746.103 790.318 705.819 795.318 652.416C796.568 639.143 797.037 615.683 796.412 584.659C795.631 535.115 794.693 526.163 787.349 501.623C768.599 439.731 718.911 389.569 657.817 370.894L646.098 367.344L400.784 367.035C201.095 366.881 153.751 367.189 146.095 368.887ZM652.348 412.566C705.005 432.322 742.036 475.23 753.287 529.404C758.755 555.797 756.88 638.371 749.849 676.803C740.943 725.884 714.224 755.672 675.005 760.148C638.13 764.315 600.16 748.727 558.285 712.456C533.598 691.002 502.035 653.651 480.472 620.158C468.441 601.483 473.753 602.563 395.159 603.026C318.909 603.489 326.252 602.1 316.408 618.924C313.127 624.326 304.065 637.291 296.096 647.786C241.564 719.71 183.283 760.457 134.376 760.611C87.9694 760.92 59.5317 733.138 46.7191 675.259C43.5941 660.596 43.1253 653.96 42.5003 607.348C41.8753 551.476 42.9691 535.27 49.2191 513.97C56.8754 488.04 67.6567 469.519 86.5631 450.072C100.313 436.027 112.97 426.92 130.157 419.049C154.532 407.782 135.47 408.399 402.347 408.708L642.973 409.017L652.348 412.566Z" fill="#5555FD"/>
<path d="M571.875 455.629C568.907 457.172 564.844 460.722 562.969 463.654C559.844 468.285 559.375 470.909 559.375 484.799V500.851H543.438C530.313 500.851 526.406 501.469 522.344 503.938C512.031 510.112 511.719 511.655 511.719 550.241C511.719 583.425 511.875 585.277 515.156 590.525C520 598.242 524.375 599.631 542.813 599.631H559.063L559.688 616.146C560.782 646.397 562.5 647.478 610.469 647.478C640.47 647.478 645.157 647.169 649.845 644.699C658.595 640.069 660.939 633.741 660.939 615.683V600.094L677.501 599.785C691.251 599.785 694.845 599.168 699.22 596.544C707.658 591.296 708.595 587.129 708.595 551.013C708.595 522.151 708.283 517.983 705.626 512.581C700.783 503.012 695.626 500.851 677.032 500.851H660.939V486.189C660.939 469.982 659.064 463.654 652.501 457.635C648.126 453.776 648.126 453.776 612.813 453.313C581.407 453.005 576.719 453.159 571.875 455.629ZM618.751 509.34C619.532 528.016 621.095 531.874 628.595 536.35C632.657 538.82 636.563 539.437 649.688 539.437H665.626V548.543V557.65L649.688 558.267C622.657 559.347 618.751 563.36 618.751 589.599V605.805H609.532H600.469L599.688 588.981C599.063 573.547 598.594 571.541 594.844 566.602C589.532 559.81 583.282 557.958 565.313 557.958H551.563V548.698V539.437H567.657C580.625 539.437 584.532 538.82 588.594 536.35C597.344 531.103 599.063 526.781 599.844 508.26L600.313 491.436L609.219 491.899L617.969 492.362L618.751 509.34Z" fill="#FFAA00"/>
<path d="M169.539 465.969C160.163 468.284 141.726 477.699 135.163 483.564C98.9131 516.13 96.8818 568.144 130.476 601.791C140.163 611.515 149.382 617.225 163.601 622.319C175.945 626.64 197.82 627.258 211.101 623.399C250.477 611.978 276.571 572.466 270.477 533.108C265.477 500.542 240.789 473.532 209.226 466.123C197.351 463.499 180.476 463.345 169.539 465.969ZM208.445 510.728C222.976 517.674 230.945 530.947 231.101 547.925C231.414 578.948 198.445 599.013 169.851 585.276C154.695 577.868 147.038 565.212 146.882 547.462C146.726 515.513 178.757 496.374 208.445 510.728Z" fill="#55AA55"/>
<path d="M453.613 108.47C449.738 110.816 446.362 116.867 446.362 121.435C446.362 126.992 448.612 130.696 458.363 141.809C471.363 156.379 478.238 170.208 478.238 181.568C478.238 196.879 471.113 207.622 438.862 240.219C411.487 268.125 401.612 283.436 398.737 302.945C396.987 314.552 398.237 320.109 403.737 325.295C408.362 329.74 415.362 330.11 421.737 326.159C426.612 323.195 428.112 320.109 429.987 309.737C432.612 295.29 439.487 286.029 473.238 251.95C499.988 224.908 508.613 211.079 511.613 190.212C514.988 167.616 509.11 146.471 486.359 121.159C481.859 116.096 473.234 107.576 471.359 106.341C467.109 103.501 458.113 105.63 453.613 108.47Z" fill="#FF5555"/>
<path fill-rule="evenodd" clip-rule="evenodd" d="M490.665 132.639C490.506 137.205 486.922 143.133 482.967 145.343C478.371 148.024 469.305 149.838 465.157 146.851C463.326 145.552 455.004 136.736 450.683 131.519C428.83 105.428 423.693 84.0917 427.855 61.6272C431.581 40.8771 440.323 28.0914 468 2.00013L488 5.00024L507.693 9.00013C505.974 10.6805 504.179 12.4085 502.306 14.1887C468.938 45.6411 461.443 56.1283 460.908 71.43C460.512 82.7829 466.9 96.8437 479.384 111.859C488.74 123.305 490.859 127.086 490.665 132.639Z" fill="#FF5555"/>
</svg>
