<svg width="1024" height="1012" viewBox="0 0 1024 1012" fill="none" xmlns="http://www.w3.org/2000/svg">
<ellipse cx="512" cy="506.22" rx="512" ry="505.77" fill="#18191C"/>
<path d="M260.095 371.887C245.72 374.974 236.501 378.524 219.938 386.859C174.782 409.547 139.938 450.757 123.531 500.764C115.563 524.533 114 540.739 114 596.611C114 634.117 114.625 653.718 116.344 666.22C122.281 710.208 136.969 743.855 160.875 767.624C182.907 789.386 204.469 798.493 237.751 799.882C259.626 800.654 269.782 799.264 289.782 792.936C331.189 779.663 374.158 748.177 416.502 699.867C430.565 683.815 451.815 656.342 457.127 647.39L459.94 642.76H511.815H563.691L576.972 660.973C629.941 733.668 689.004 781.361 743.223 795.715C760.255 800.345 790.411 801.425 807.13 798.03C822.13 795.097 844.474 784.447 855.411 775.187C886.193 749.103 904.318 708.819 909.318 655.416C910.568 642.143 911.037 618.683 910.412 587.659C909.631 538.115 908.693 529.163 901.349 504.623C882.599 442.731 832.911 392.569 771.817 373.894L760.098 370.344L514.784 370.035C315.095 369.881 267.751 370.189 260.095 371.887ZM766.348 415.566C819.005 435.322 856.036 478.23 867.287 532.404C872.755 558.797 870.88 641.371 863.849 679.803C854.943 728.884 828.224 758.672 789.005 763.148C752.13 767.315 714.16 751.727 672.285 715.456C647.598 694.002 616.035 656.651 594.472 623.158C582.441 604.483 587.753 605.563 509.159 606.026C432.909 606.489 440.252 605.1 430.408 621.924C427.127 627.326 418.065 640.291 410.096 650.786C355.564 722.71 297.283 763.457 248.376 763.611C201.969 763.92 173.532 736.138 160.719 678.259C157.594 663.596 157.125 656.96 156.5 610.348C155.875 554.476 156.969 538.27 163.219 516.97C170.875 491.04 181.657 472.519 200.563 453.072C214.313 439.027 226.97 429.92 244.157 422.049C268.532 410.782 249.47 411.399 516.347 411.708L756.973 412.017L766.348 415.566Z" fill="#5555FD"/>
<path d="M685.875 458.629C682.907 460.172 678.844 463.722 676.969 466.654C673.844 471.285 673.375 473.909 673.375 487.799V503.851H657.438C644.313 503.851 640.406 504.469 636.344 506.938C626.031 513.112 625.719 514.655 625.719 553.241C625.719 586.425 625.875 588.277 629.156 593.525C634 601.242 638.375 602.631 656.813 602.631H673.063L673.688 619.146C674.782 649.397 676.5 650.478 724.469 650.478C754.47 650.478 759.157 650.169 763.845 647.699C772.595 643.069 774.939 636.741 774.939 618.683V603.094L791.501 602.785C805.251 602.785 808.845 602.168 813.22 599.544C821.658 594.296 822.595 590.129 822.595 554.013C822.595 525.151 822.283 520.983 819.626 515.581C814.783 506.012 809.626 503.851 791.032 503.851H774.939V489.189C774.939 472.982 773.064 466.654 766.501 460.635C762.126 456.776 762.126 456.776 726.813 456.313C695.407 456.005 690.719 456.159 685.875 458.629ZM732.751 512.34C733.532 531.016 735.095 534.874 742.595 539.35C746.657 541.82 750.563 542.437 763.688 542.437H779.626V551.543V560.65L763.688 561.267C736.657 562.347 732.751 566.36 732.751 592.599V608.805H723.532H714.469L713.688 591.981C713.063 576.547 712.594 574.541 708.844 569.602C703.532 562.81 697.282 560.958 679.313 560.958H665.563V551.698V542.437H681.657C694.625 542.437 698.532 541.82 702.594 539.35C711.344 534.103 713.063 529.781 713.844 511.26L714.313 494.436L723.219 494.899L731.969 495.362L732.751 512.34Z" fill="#FFAA00"/>
<path d="M283.539 468.969C274.163 471.284 255.726 480.699 249.163 486.564C212.913 519.13 210.882 571.144 244.476 604.791C254.163 614.515 263.382 620.225 277.601 625.319C289.945 629.64 311.82 630.258 325.101 626.399C364.477 614.978 390.571 575.466 384.477 536.108C379.477 503.542 354.789 476.532 323.226 469.123C311.351 466.499 294.476 466.345 283.539 468.969ZM322.445 513.728C336.976 520.674 344.945 533.947 345.101 550.925C345.414 581.948 312.445 602.013 283.851 588.276C268.695 580.868 261.038 568.212 260.882 550.462C260.726 518.513 292.757 499.374 322.445 513.728Z" fill="#55AA55"/>
<path d="M567.613 111.47C563.738 113.816 560.362 119.867 560.362 124.435C560.362 129.992 562.612 133.696 572.363 144.809C585.363 159.379 592.238 173.208 592.238 184.568C592.238 199.879 585.113 210.622 552.862 243.219C525.487 271.125 515.612 286.436 512.737 305.945C510.987 317.552 512.237 323.109 517.737 328.295C522.362 332.74 529.362 333.11 535.737 329.159C540.612 326.195 542.112 323.109 543.987 312.737C546.612 298.29 553.487 289.029 587.238 254.95C613.988 227.908 622.613 214.079 625.613 193.212C628.988 170.616 623.11 149.471 600.359 124.159C595.859 119.096 587.234 110.576 585.359 109.341C581.109 106.501 572.113 108.63 567.613 111.47Z" fill="#FF5555"/>
<path fill-rule="evenodd" clip-rule="evenodd" d="M604.665 135.639C604.506 140.205 600.922 146.133 596.967 148.343C592.371 151.024 583.305 152.838 579.157 149.851C577.326 148.552 569.004 139.736 564.683 134.519C542.83 108.428 537.693 87.0917 541.855 64.6272C545.581 43.8771 554.323 31.0914 582 5.00013L602 8.00024L621.693 12.0001C619.974 13.6805 618.179 15.4085 616.306 17.1887C582.938 48.6411 575.443 59.1283 574.908 74.43C574.512 85.7829 580.9 99.8437 593.384 114.859C602.74 126.305 604.859 130.086 604.665 135.639Z" fill="#FF5555"/>
</svg>
